<svg xmlns="http://www.w3.org/2000/svg" width="16" height="16" fill="currentColor" class="bukalapak" viewBox="0 0 16 16">
<path d="M8,0C3.6,0,0,3.6,0,8c0,4.4,3.6,8,8,8c4.4,0,8-3.6,8-8C16,3.6,12.4,0,8,0z M4.9,9.9L2.4,4.4
  c-0.1-0.2-0.1-0.5,0-0.7c0.1-0.2,0.3-0.4,0.5-0.5l1.9-0.6c0.3-0.1,0.5-0.1,0.7,0.1C5.8,2.7,6,2.9,6,3.1L7.4,9
  c0.1,0.5-0.1,0.9-0.6,1.1L6,10.3C5.6,10.5,5.1,10.3,4.9,9.9z M7.2,13.7c-0.8,0-1.4-0.6-1.4-1.3c0-0.8,0.6-1.4,1.3-1.4
  c0.8,0,1.4,0.6,1.4,1.3C8.5,13,8,13.7,7.2,13.7z M10.5,12.5c-0.2,0.1-0.4,0.1-0.6,0c-0.2-0.1-0.4-0.3-0.4-0.5l-0.3-0.9
  c-0.1-0.4,0.1-0.9,0.5-1c0.2-0.1,0.5-0.2,0.5-0.2C10.7,9.6,11,9.1,11,8.4c0-0.7-0.6-1.5-1.4-1.6c-0.2,0-0.5,0-0.9,0
  c-0.2,0-0.5-0.1-0.5-0.3L7.8,4.9c0-0.1,0-0.3,0.1-0.4c0.1-0.1,0.3-0.2,0.4-0.2c0.6-0.1,1.2-0.1,1.8,0c1.8,0.4,3.3,2,3.4,4
  C13.6,10.4,12.3,11.9,10.5,12.5z"/>

</svg>