<svg xmlns="http://www.w3.org/2000/svg" width="16" height="16" fill="currentColor" class="bi bi-arrow-up-circle-fill" viewBox="0 0 16 16">
<path d="M15.1,4.2L15.1,4.2c0-0.2-0.1-0.3-0.3-0.3h-3.3C11.4,1.7,9.9,0,8,0C6.1,0,4.6,1.7,4.5,3.9l-3.3,0
  C1,3.9,0.9,4,0.9,4.2c0,0,0,0,0,0h0l0.5,10.4c0,0,0,0.1,0,0.1c0,0,0,0,0,0l0,0l0,0C1.5,15.4,2,16,2.7,16l0,0h10.4c0,0,0,0,0,0
  s0,0,0,0h0l0,0c0.7,0,1.3-0.6,1.4-1.3l0,0l0,0c0,0,0,0,0,0c0,0,0,0,0-0.1L15.1,4.2L15.1,4.2C15.1,4.2,15.1,4.2,15.1,4.2z M8,0.9
  c1.4,0,2.5,1.3,2.5,2.9H5.5C5.5,2.2,6.6,0.9,8,0.9z M10.6,12L10.6,12c-0.1,0.8-0.6,1.4-1.3,1.7c-0.4,0.2-0.9,0.3-1.4,0.2
  c-0.7,0-1.3-0.2-1.9-0.5c-0.2-0.1-0.5-0.3-0.7-0.5c-0.1,0-0.1-0.1,0-0.1c0,0,0.1-0.1,0.1-0.2c0.1-0.2,0.1-0.2,0.2-0.2
  c0-0.1,0.1-0.1,0.2,0c0,0,0,0,0,0c0,0,0,0,0,0c0,0,0,0,0,0c0.6,0.5,1.3,0.8,2.1,0.8c1,0,1.7-0.5,1.9-1.2c0.1-0.8-0.5-1.4-1.6-1.8
  c-0.4-0.1-1.3-0.5-1.5-0.6C5.9,9.1,5.5,8.5,5.6,7.7c0.1-1.1,1.1-1.9,2.3-1.9C8.5,5.8,9,6,9.5,6.2c0.2,0.1,0.5,0.3,0.6,0.4
  c0.1,0,0.1,0.1,0,0.2c0,0-0.1,0.1-0.1,0.2l0,0C10,7.1,10,7.1,10,7.1c0,0.1-0.1,0.1-0.2,0C9.2,6.8,8.6,6.6,7.9,6.5
  C7,6.6,6.4,7.1,6.3,7.8c0,0.6,0.5,1.1,1.5,1.5C9.9,9.9,10.7,10.7,10.6,12z"/>
</svg>