<svg xmlns="http://www.w3.org/2000/svg" width="16" height="16" fill="currentColor" class="tokopedia" viewBox="0 0 16 16">
<style type="text/css">
	.st0{fill-rule:evenodd;clip-rule:evenodd;fill:#414242;}
	.st1{fill-rule:evenodd;clip-rule:evenodd;fill:#60BB55;}
	.st2{fill-rule:evenodd;clip-rule:evenodd;fill:url(#XMLID_7_);}
	.st3{fill-rule:evenodd;clip-rule:evenodd;fill:#84C468;}
	.st4{fill-rule:evenodd;clip-rule:evenodd;fill:url(#XMLID_8_);}
	.st5{fill-rule:evenodd;clip-rule:evenodd;fill:#4F9D4D;}
	.st6{fill-rule:evenodd;clip-rule:evenodd;fill:url(#XMLID_9_);}
	.st7{opacity:0.7;fill-rule:evenodd;clip-rule:evenodd;fill:url(#XMLID_10_);}
	.st8{fill-rule:evenodd;clip-rule:evenodd;fill:#FFFFFF;}
	.st9{fill-rule:evenodd;clip-rule:evenodd;fill:url(#SVGID_1_);}
	.st10{fill-rule:evenodd;clip-rule:evenodd;fill:#303030;}
	.st11{fill-rule:evenodd;clip-rule:evenodd;fill:url(#XMLID_11_);}
	.st12{opacity:0.5;fill:url(#SVGID_2_);}
	.st13{opacity:0.7;fill-rule:evenodd;clip-rule:evenodd;fill:url(#XMLID_13_);}
	.st14{fill-rule:evenodd;clip-rule:evenodd;fill:url(#SVGID_3_);}
	.st15{fill-rule:evenodd;clip-rule:evenodd;fill:url(#SVGID_4_);}
	.st16{fill:url(#SVGID_5_);}
	.st17{opacity:0.5;fill:url(#SVGID_6_);}
	.st18{opacity:0.8;fill-rule:evenodd;clip-rule:evenodd;fill:url(#SVGID_7_);}
	.st19{opacity:0.8;fill-rule:evenodd;clip-rule:evenodd;fill:url(#SVGID_8_);}
	.st20{fill:url(#SVGID_9_);}
	.st21{opacity:0.9;fill-rule:evenodd;clip-rule:evenodd;fill:url(#SVGID_10_);}
	.st22{fill-rule:evenodd;clip-rule:evenodd;fill:url(#SVGID_11_);}
</style>
<g>
	<path id="XMLID_51_" class="st0" d="M11.6,3.3C11.4,1.4,9.9,0,8,0C6.1,0,4.6,1.4,4.4,3.2l0,0.4l1.1,0.1l0-0.4C5.7,2,6.6,1.1,8,1.1
		c1.4,0,2.4,0.9,2.5,2.2l0.1,0.6l1.1-0.1L11.6,3.3z"/>
	<path id="XMLID_56_" class="st1" d="M1.4,3.1c-0.2,0-0.4,0.2-0.4,0.4l0,6.5l0,1.2l0,0.3l0,4C1,15.8,1.2,16,1.4,16l4,0l0.7,0l4.5,0
		c2.5,0,4.5-2,4.5-4.5l0-0.3l0-7.3c0-0.4-0.4-0.8-0.8-0.8c-0.8,0-1.7,0-2.5,0l-1,0.1C9.8,3.3,8.9,3.5,8.2,3.9
		c-0.1,0.1-0.3,0.1-0.4,0C7,3.5,6.2,3.3,5.2,3.2l-1-0.1C3.3,3,2.3,3.1,1.4,3.1z"/>
	<linearGradient id="XMLID_7_" gradientUnits="userSpaceOnUse" x1="9.3478" y1="5.7142" x2="2.072" y2="19.098">
		<stop  offset="0" style="stop-color:#519B4C;stop-opacity:0"/>
		<stop  offset="1" style="stop-color:#519B4C"/>
	</linearGradient>
	<path id="XMLID_2_" class="st2" d="M1.8,3.1C1.3,3.1,0.9,3.5,0.9,4l0,6.1l0,1.2l0,0.3l0,4C1,15.8,1.2,16,1.4,16l4,0l0.7,0l4.5,0
		c2.5,0,4.5-2,4.5-4.5l0-0.3l0-7.3c0-0.5-0.4-0.8-0.8-0.8c-0.8,0-1.7,0-2.5,0l-1,0.1C9.8,3.3,8.9,3.5,8.2,3.9
		c-0.1,0.1-0.3,0.1-0.4,0C7,3.5,6.2,3.3,5.2,3.2l-1-0.1C3.4,3.1,2.6,3.1,1.8,3.1z"/>
	<path id="XMLID_54_" class="st3" d="M2.2,16l3.2,0l0.7,0l4.5,0c1.1,0,2.1-0.4,2.9-1.1c-0.9-2.1-3-3.6-5.5-3.6
		C5.2,11.4,2.8,13.3,2.2,16"/>
	<linearGradient id="XMLID_8_" gradientUnits="userSpaceOnUse" x1="7.8322" y1="13.8216" x2="7.8629" y2="17.5988">
		<stop  offset="0" style="stop-color:#519B4C;stop-opacity:0"/>
		<stop  offset="1" style="stop-color:#519B4C"/>
	</linearGradient>
	<path id="XMLID_3_" class="st4" d="M2.2,16l3.2,0l0.7,0l4.5,0c1.1,0,2.1-0.4,2.9-1.1c-0.9-2.1-3-3.6-5.5-3.6
		C5.2,11.4,2.8,13.3,2.2,16"/>
	<path id="XMLID_53_" class="st5" d="M8,16l2.6,0c1.1,0,2.1-0.4,2.8-1c1-0.8,1.6-2,1.6-3.4l0-0.3l0-7.8c0-0.2-0.2-0.4-0.4-0.4
		c-1,0-2,0-2.9,0l-1,0.1C9.8,3.3,8.8,3.5,8,4L8,16z"/>
	<linearGradient id="XMLID_9_" gradientUnits="userSpaceOnUse" x1="11.3972" y1="8.5841" x2="12.9634" y2="21.2976">
		<stop  offset="0" style="stop-color:#519B4C;stop-opacity:0"/>
		<stop  offset="1" style="stop-color:#519B4C"/>
	</linearGradient>
	<path id="XMLID_1_" class="st6" d="M8,16l2.6,0c1.1,0,2.1-0.4,2.8-1c1-0.8,1.6-2,1.6-3.4l0-0.3l0-7.8c0-0.2-0.2-0.4-0.4-0.4
		c-1,0-2,0-2.9,0l-1,0.1C9.8,3.3,8.8,3.5,8,4L8,16z"/>
	<linearGradient id="XMLID_10_" gradientUnits="userSpaceOnUse" x1="14.8539" y1="5.2632" x2="6.6009" y2="12.4169">
		<stop  offset="0" style="stop-color:#3F843F"/>
		<stop  offset="1" style="stop-color:#519B4C"/>
	</linearGradient>
	<path id="XMLID_37_" class="st7" d="M11.2,5.2c1.8,0,3.2,1.4,3.2,3.2c0,1.8-1.4,3.2-3.2,3.2C9.4,11.6,8,10.2,8,8.4
		C8,6.7,9.4,5.2,11.2,5.2"/>
	<path id="XMLID_36_" class="st8" d="M11.2,5.6c1.5,0,2.8,1.2,2.8,2.8c0,1.5-1.2,2.8-2.8,2.8c-1.5,0-2.8-1.2-2.8-2.8
		C8.4,6.9,9.7,5.6,11.2,5.6"/>
	<linearGradient id="SVGID_1_" gradientUnits="userSpaceOnUse" x1="11.209" y1="11.2115" x2="11.209" y2="7.8359">
		<stop  offset="0" style="stop-color:#E5E3E3"/>
		<stop  offset="1" style="stop-color:#E5E3E3;stop-opacity:0"/>
	</linearGradient>
	<path class="st9" d="M13.9,7.7c-0.3,1.2-1.4,2-2.7,2c-1.3,0-2.4-0.9-2.7-2C8.4,7.9,8.4,8.2,8.4,8.4c0,1.6,1.3,2.8,2.8,2.8
		c1.6,0,2.8-1.3,2.8-2.8C14,8.2,14,7.9,13.9,7.7z"/>
	<path id="XMLID_12_" class="st10" d="M10.9,6.6c1-0.1,1.9,0.6,2,1.7c0.1,1-0.6,1.9-1.7,2c-1,0.1-1.9-0.6-2-1.7c0-0.3,0-0.7,0.2-1
		C9.6,8,9.9,8.2,10.3,8.2c0.5,0,0.8-0.5,0.8-1C11,7,10.9,6.8,10.9,6.6C10.8,6.6,10.9,6.6,10.9,6.6"/>
	<path id="XMLID_52_" class="st1" d="M8,16l2.6,0c1.1,0,2.1-0.4,2.9-1.1c-0.9-2.1-3.1-3.6-5.5-3.6L8,16z"/>
	<linearGradient id="XMLID_11_" gradientUnits="userSpaceOnUse" x1="10.6835" y1="14.1198" x2="10.4992" y2="17.4364">
		<stop  offset="0" style="stop-color:#519B4C;stop-opacity:0"/>
		<stop  offset="1" style="stop-color:#519B4C"/>
	</linearGradient>
	<path id="XMLID_4_" class="st11" d="M8,16l2.6,0c1.1,0,2.1-0.4,2.9-1.1c-0.9-2.1-3.1-3.6-5.5-3.6L8,16z"/>
	<linearGradient id="SVGID_2_" gradientUnits="userSpaceOnUse" x1="8.0282" y1="10.3824" x2="7.9505" y2="14.1897">
		<stop  offset="0" style="stop-color:#3F843F"/>
		<stop  offset="1" style="stop-color:#519B4C"/>
	</linearGradient>
	<path class="st12" d="M9.7,11.2C9.4,10.1,8.3,10,8,10c0,0,0,0-0.1,0c-0.3,0-1.4,0.1-1.6,1.3c0,0,0,0.1,0,0.2l0,0
		c0,0,0.1,0.1,0.2,0.2c0.2,0.5,1.1,1.5,1.5,1.5c0,0,0,0,0,0c0.3,0,1.1-0.9,1.4-1.5c0.1-0.1,0.3-0.2,0.3-0.2
		C9.7,11.4,9.7,11.3,9.7,11.2z"/>
	<linearGradient id="XMLID_13_" gradientUnits="userSpaceOnUse" x1="1.5619" y1="8.4228" x2="7.9933" y2="8.4228">
		<stop  offset="0" style="stop-color:#3F843F"/>
		<stop  offset="1" style="stop-color:#519B4C"/>
	</linearGradient>
	<path id="XMLID_6_" class="st13" d="M4.8,5.2C6.5,5.2,8,6.6,8,8.4c0,1.8-1.4,3.2-3.2,3.2c-1.8,0-3.2-1.4-3.2-3.2
		C1.6,6.7,3,5.2,4.8,5.2"/>
	<path id="XMLID_46_" class="st8" d="M4.8,5.6c1.5,0,2.8,1.2,2.8,2.8c0,1.5-1.2,2.8-2.8,2.8C3.2,11.2,2,10,2,8.4
		C2,6.9,3.2,5.6,4.8,5.6"/>
	<linearGradient id="SVGID_3_" gradientUnits="userSpaceOnUse" x1="4.7776" y1="11.2115" x2="4.7776" y2="7.8359">
		<stop  offset="0" style="stop-color:#E5E3E3"/>
		<stop  offset="1" style="stop-color:#E5E3E3;stop-opacity:0"/>
	</linearGradient>
	<path class="st14" d="M7.5,7.7c-0.3,1.2-1.4,2-2.7,2c-1.3,0-2.4-0.9-2.7-2C2,7.9,2,8.2,2,8.4c0,1.6,1.3,2.8,2.8,2.8
		c1.6,0,2.8-1.3,2.8-2.8C7.6,8.2,7.5,7.9,7.5,7.7z"/>
	<path id="XMLID_41_" class="st10" d="M5.1,6.6c1,0,1.9,0.8,1.9,1.8c0,1-0.8,1.9-1.8,1.9c-1,0-1.9-0.8-1.9-1.8
		c0-0.3,0.1-0.7,0.3-0.9c0.1,0.3,0.5,0.6,0.8,0.6c0.5,0,0.9-0.4,0.9-0.9C5.2,7,5.1,6.8,5.1,6.6C5,6.6,5,6.6,5.1,6.6"/>
	<g>
		
			<linearGradient id="SVGID_4_" gradientUnits="userSpaceOnUse" x1="8.0423" y1="-20.6236" x2="8.0423" y2="-18.328" gradientTransform="matrix(1.0059 1.145207e-03 1.145206e-03 1.069 -6.304640e-02 32.3874)">
			<stop  offset="0" style="stop-color:#F9EC31"/>
			<stop  offset="0.2122" style="stop-color:#F9DE2E"/>
			<stop  offset="0.6076" style="stop-color:#F7BB27"/>
			<stop  offset="0.9996" style="stop-color:#F6921E"/>
		</linearGradient>
		<path class="st15" d="M8,12.8c0.4,0,1.5-1.3,1.4-1.7C9.2,10.1,8.3,10,8,10c0,0,0,0-0.1,0c-0.3,0-1.2,0.2-1.4,1.2
			C6.4,11.6,7.6,12.8,8,12.8C8,12.8,8,12.8,8,12.8z"/>
	</g>
	<linearGradient id="SVGID_5_" gradientUnits="userSpaceOnUse" x1="9.7874" y1="12.5815" x2="7.8491" y2="11.0167">
		<stop  offset="0" style="stop-color:#F9EC31"/>
		<stop  offset="0.2122" style="stop-color:#F9DE2E"/>
		<stop  offset="0.6076" style="stop-color:#F7BB27"/>
		<stop  offset="0.9996" style="stop-color:#F6921E"/>
	</linearGradient>
	<path class="st16" d="M9.3,11.7c0.2-0.2,0.3-0.5,0.2-0.6c-0.1-0.4-0.3-0.7-0.6-0.8c-0.4-0.2-0.8-0.2-0.9-0.2c0,0,0,0-0.1,0
		c-0.2,0-0.5,0.1-0.9,0.3c-0.2,0.2-0.4,0.4-0.5,0.8c0,0.1,0.1,0.3,0.2,0.5c0.4,0.3,1.1,0.6,1.3,0.6C8.2,12.3,8.8,12,9.3,11.7z"/>
	<linearGradient id="SVGID_6_" gradientUnits="userSpaceOnUse" x1="9.7874" y1="12.5815" x2="7.8491" y2="11.0167">
		<stop  offset="0" style="stop-color:#F9EC31"/>
		<stop  offset="0.2122" style="stop-color:#F9DE2E"/>
		<stop  offset="0.6076" style="stop-color:#F7BB27"/>
		<stop  offset="0.9996" style="stop-color:#F6921E"/>
	</linearGradient>
	<path class="st17" d="M9.3,11.7c0.2-0.2,0.3-0.5,0.2-0.6c-0.1-0.4-0.3-0.7-0.6-0.8c-0.4-0.2-0.8-0.2-0.9-0.2c0,0,0,0-0.1,0
		c-0.2,0-0.5,0.1-0.9,0.3c-0.2,0.2-0.4,0.4-0.5,0.8c0,0.1,0.1,0.3,0.2,0.5c0.4,0.3,1.1,0.6,1.3,0.6C8.2,12.3,8.8,12,9.3,11.7z"/>
	<linearGradient id="SVGID_7_" gradientUnits="userSpaceOnUse" x1="4.4017" y1="4.4869" x2="4.4017" y2="2.1211">
		<stop  offset="0.198" style="stop-color:#FFFFFF;stop-opacity:0"/>
		<stop  offset="0.9718" style="stop-color:#FFFFFF"/>
	</linearGradient>
	<path class="st18" d="M7.7,4.1C6.9,3.7,6.1,3.5,5.1,3.4L4.2,3.3c-0.9,0-1.8,0-2.7,0c-0.2,0-0.4,0.2-0.4,0.4
		C4.1,3.2,7.7,4.1,7.7,4.1z"/>
	
		<linearGradient id="SVGID_8_" gradientUnits="userSpaceOnUse" x1="226.0094" y1="4.5483" x2="226.0094" y2="2.1825" gradientTransform="matrix(-1 0 0 1 237.5356 0)">
		<stop  offset="0.198" style="stop-color:#FFFFFF;stop-opacity:0"/>
		<stop  offset="0.9718" style="stop-color:#FFFFFF"/>
	</linearGradient>
	<path class="st19" d="M8.2,4.1C9,3.7,9.8,3.5,10.8,3.4l0.9-0.1c0.9,0,1.8,0,2.7,0c0.2,0,0.4,0.2,0.4,0.4C11.8,3.2,8.2,4.1,8.2,4.1z
		"/>
	<g>
		<linearGradient id="SVGID_9_" gradientUnits="userSpaceOnUse" x1="8.029" y1="10.1484" x2="7.9731" y2="12.8893">
			<stop  offset="0" style="stop-color:#F9EC31"/>
			<stop  offset="0.2122" style="stop-color:#F9DE2E"/>
			<stop  offset="0.6076" style="stop-color:#F7BB27"/>
			<stop  offset="0.9996" style="stop-color:#F6921E"/>
		</linearGradient>
		<path class="st20" d="M9.7,11.1C9.4,10,8.3,9.9,8,9.9c0,0,0,0-0.1,0c-0.3,0-1.4,0.2-1.6,1.3c0,0,0,0.1,0,0.1l0,0
			c0,0,1.4,0.9,1.7,0.9c0.4,0,1.6-0.8,1.7-0.9C9.7,11.2,9.7,11.1,9.7,11.1z"/>
	</g>
	<linearGradient id="SVGID_10_" gradientUnits="userSpaceOnUse" x1="9.3694" y1="10.4597" x2="6.9726" y2="11.2933">
		<stop  offset="1.302083e-03" style="stop-color:#F9EC31;stop-opacity:0"/>
		<stop  offset="0.2133" style="stop-color:#F9DE2E;stop-opacity:0.2123"/>
		<stop  offset="0.6082" style="stop-color:#F7BB27;stop-opacity:0.6079"/>
		<stop  offset="0.9996" style="stop-color:#F6921E"/>
	</linearGradient>
	<path class="st21" d="M6.3,11.1c0,0,0,0.1,0,0.1l0,0c0,0,1.3,0.8,1.7,0.9C8.1,10,8,9.9,8,9.9C7.7,9.9,6.6,10.1,6.3,11.1z"/>
	<g>
		<g>
			<linearGradient id="SVGID_11_" gradientUnits="userSpaceOnUse" x1="8.3903" y1="12.5495" x2="7.9277" y2="9.1775">
				<stop  offset="0.198" style="stop-color:#FFFFFF;stop-opacity:0"/>
				<stop  offset="0.9718" style="stop-color:#FFFFFF"/>
			</linearGradient>
			<path class="st22" d="M8.4,9.9c-0.1,0-0.3,0-0.3,0c0,0,0,0-0.1,0c0,0,0.1,0.2,0,2.2C8.2,11.6,8.3,10.5,8.4,9.9z"/>
			<path class="st8" d="M7.9,9.9C7.9,9.9,7.9,9.9,7.9,9.9C7.9,9.9,7.9,9.9,7.9,9.9z"/>
		</g>
	</g>
</g>
</svg>